<svg xmlns="http://www.w3.org/2000/svg" width="78.365" height="50" viewBox="0 0 78.365 50"><path d="M81.1,10.421,60.83,29.448a.318.318,0,0,0,0,.486L75.015,43.858a2.131,2.131,0,0,1,0,3.194,2.606,2.606,0,0,1-3.466,0L57.42,33.181a.41.41,0,0,0-.546,0L53.427,36.41a15.829,15.829,0,0,1-10.813,4.2,16.139,16.139,0,0,1-11.039-4.323L28.26,33.181a.41.41,0,0,0-.546,0L13.585,47.053a2.606,2.606,0,0,1-3.466,0,2.131,2.131,0,0,1,0-3.194L24.3,29.934a.348.348,0,0,0,0-.486L4.015,10.421a.376.376,0,0,0-.64.243V48.737A5.823,5.823,0,0,0,9.4,54.292H75.712a5.823,5.823,0,0,0,6.028-5.556V10.664A.382.382,0,0,0,81.1,10.421Z" transform="translate(-3.375 -4.292)" fill="#fff"/><path d="M41.129,39.663a10.691,10.691,0,0,0,7.366-2.847L78.05,9.09a6.24,6.24,0,0,0-3.73-1.215H7.956A6.2,6.2,0,0,0,4.226,9.09L33.782,36.816A10.69,10.69,0,0,0,41.129,39.663Z" transform="translate(-1.946 -7.875)" fill="#fff"/></svg>