<svg xmlns="http://www.w3.org/2000/svg" width="16.207" height="16.204" viewBox="0 0 16.207 16.204"><path style="fill: #fff" d="M8.1,6.185a4.154,4.154,0,1,0,4.154,4.154A4.148,4.148,0,0,0,8.1,6.185Zm0,6.855a2.7,2.7,0,1,1,2.7-2.7A2.706,2.706,0,0,1,8.1,13.04Zm5.293-7.025a.969.969,0,1,1-.969-.969A.967.967,0,0,1,13.394,6.015ZM16.145,7a4.8,4.8,0,0,0-1.309-3.4,4.827,4.827,0,0,0-3.4-1.309c-1.338-.076-5.348-.076-6.685,0A4.82,4.82,0,0,0,1.361,3.6,4.811,4.811,0,0,0,.052,7c-.076,1.338-.076,5.348,0,6.685a4.8,4.8,0,0,0,1.309,3.4,4.833,4.833,0,0,0,3.4,1.309c1.338.076,5.348.076,6.685,0a4.8,4.8,0,0,0,3.4-1.309,4.827,4.827,0,0,0,1.309-3.4c.076-1.338.076-5.344,0-6.682Zm-1.728,8.117a2.734,2.734,0,0,1-1.54,1.54c-1.067.423-3.6.325-4.776.325s-3.713.094-4.776-.325a2.734,2.734,0,0,1-1.54-1.54c-.423-1.067-.325-3.6-.325-4.776s-.094-3.713.325-4.776a2.734,2.734,0,0,1,1.54-1.54C4.391,3.6,6.921,3.7,8.1,3.7s3.713-.094,4.776.325a2.734,2.734,0,0,1,1.54,1.54c.423,1.067.325,3.6.325,4.776S14.84,14.053,14.417,15.116Z" transform="translate(0.005 -2.238)" fill="#234153"/></svg>
