<svg xmlns="http://www.w3.org/2000/svg" width="22" height="28.601" viewBox="0 0 22 28.601">
  <path id="Icon_ionic-ios-lock" data-name="Icon ionic-ios-lock" d="M23,11.775H21.35V8.565a6.6,6.6,0,1,0-13.2-.089v3.3H6.5a2.758,2.758,0,0,0-2.75,2.75v13.2a2.758,2.758,0,0,0,2.75,2.75H23a2.758,2.758,0,0,0,2.75-2.75v-13.2A2.758,2.758,0,0,0,23,11.775Zm-7.287,8.58v4.73a.986.986,0,0,1-.914.99.964.964,0,0,1-1.011-.963V20.355a2.2,2.2,0,1,1,1.925,0Zm3.712-8.58h-9.35v-3.3a4.675,4.675,0,0,1,9.35,0Z" transform="translate(-3.75 -1.875)" fill="#ff5258"/>
</svg>
