<svg xmlns="http://www.w3.org/2000/svg" xmlns:xlink="http://www.w3.org/1999/xlink" width="424.243" height="186.141" viewBox="0 0 424.243 186.141">
  <defs>
    <linearGradient id="linear-gradient" x1="0.5" x2="0.5" y2="1" gradientUnits="objectBoundingBox">
      <stop offset="0" stop-color="#ffaa38"/>
      <stop offset="1" stop-color="#fff" stop-opacity="0"/>
    </linearGradient>
  </defs>
  <g id="Products_Sold_Graph" data-name="Products Sold Graph" transform="translate(-2.102 -4.099)">
    <path id="Filled.Graph" d="M330,458.751V384.644s48.776,48.608,87.749,51.661c42.141-2.959,49.439-23.761,82.264-51.661,28.051-23.255,56.024-29.637,82.874-27.994s50.122,26.764,81.837,29.339c55.95-10.372,84.5-62.81,88.276-84.711V486.313L330,486.4Z" transform="translate(-327.646 -296.155)" opacity="0.7" fill="url(#linear-gradient)"/>
    <path id="Line.Graph" d="M313,331.373s48.452,50.774,86.761,51.867,53.024-26.2,82.367-51.8,57.237-29.967,82.919-29.106,50.647,27.685,82.2,29.109,82.6-46.369,88.28-86.2" transform="translate(-310.175 -241)" fill="none" stroke="#ffaa38" stroke-width="2"/>
  </g>
</svg>
