<svg xmlns="http://www.w3.org/2000/svg" width="145.965" height="33.306" viewBox="0 0 145.965 33.306">
  <g id="Group_641" data-name="Group 641" transform="translate(477 -7051)">
    <g id="Group_627" data-name="Group 627" transform="translate(-477 7051)">
      <path id="Path_407" data-name="Path 407" d="M.969,0H31.328A.94.94,0,0,1,32.3.908V5.147a.94.94,0,0,1-.969.908H.969A.94.94,0,0,1,0,5.147V.908A.94.94,0,0,1,.969,0Z" transform="translate(8.074 9.084)" fill="#38b6ff"/>
      <path id="Path_410" data-name="Path 410" d="M1.211,0H39.16c.669,0,1.211.407,1.211.908V5.147c0,.5-.542.908-1.211.908H1.211C.542,6.056,0,5.649,0,5.147V.908C0,.407.542,0,1.211,0Z" fill="#38b6ff"/>
      <path id="Path_408" data-name="Path 408" d="M.969,0H23.254a.94.94,0,0,1,.969.908V5.147a.94.94,0,0,1-.969.908H.969A.94.94,0,0,1,0,5.147V.908A.94.94,0,0,1,.969,0Z" transform="translate(16.148 18.167)" fill="#44d9e6"/>
      <path id="Path_409" data-name="Path 409" d="M.969,0H15.18a.94.94,0,0,1,.969.908V5.147a.94.94,0,0,1-.969.908H.969A.94.94,0,0,1,0,5.147V.908A.94.94,0,0,1,.969,0Z" transform="translate(24.223 27.251)" fill="#38b6ff"/>
    </g>
    <g id="Group_635" data-name="Group 635" transform="translate(-424.532 7051)">
      <path id="Path_412" data-name="Path 412" d="M12.389-55.323h.149L15.084-45.9h2.639L21.294-59.89H18.385l-2.079,10h-.149l-2.5-10H11.28l-2.452,10H8.678l-2.1-10H3.652L7.214-45.9H9.872ZM31.262-45.9h3.049L29.64-59.89H26.33L21.658-45.9h2.825l1.035-3.394h4.728Zm-3.45-11.15h.168l1.669,5.566H26.125ZM50.853-45.9V-59.89h-3.31l-3.73,9.648h-.168L39.925-59.89h-3.32V-45.9h2.611v-9.473h.149L42.8-46.587h1.874l3.422-8.785h.149V-45.9Z" transform="translate(-3.652 59.89)" fill="#234153"/>
      <path id="Path_411" data-name="Path 411" d="M12.649-47.675h2.219L10.011-61.019H7.763L2.905-47.675H5.05l1.24-3.606h5.129ZM8.78-58.661h.159l1.949,5.715H6.822ZM22.1-47.351c3,0,5.212-1.711,5.585-4.309H25.6A3.368,3.368,0,0,1,22.1-49.192c-2.424,0-3.935-1.979-3.935-5.151s1.511-5.16,3.926-5.16A3.452,3.452,0,0,1,25.6-56.793h2.079a5.339,5.339,0,0,0-5.595-4.55c-3.739,0-6.061,2.682-6.061,7S18.356-47.351,22.1-47.351Zm16.644-.324h2.219L36.1-61.019H33.854L29-47.675H31.14l1.24-3.606h5.129ZM34.87-58.661h.159l1.949,5.715H32.912ZM43.3-61.019v13.344h4.858c4.01,0,6.331-2.46,6.331-6.7,0-4.2-2.34-6.64-6.331-6.64Zm2.089,1.785h2.536c2.788,0,4.439,1.8,4.439,4.883,0,3.107-1.622,4.892-4.439,4.892H45.388ZM65.856-49.46H59.4v-4.152h6.108v-1.72H59.4v-3.9h6.453v-1.785H57.314v13.344h8.541Zm16.626,1.785V-61.019H80.038l-4.289,10.44h-.159l-4.28-10.44H68.868v13.344h1.94V-57.45h.131l3.944,9.534h1.585l3.944-9.534h.131v9.775Zm9.175,0V-53.14L96.4-61.019H94.081L90.7-55.2h-.159l-3.385-5.817H84.831l4.737,7.879v5.465Z" transform="translate(-2.905 80.541)" fill="#b2bcc3"/>
    </g>
  </g>
</svg>
