<svg xmlns="http://www.w3.org/2000/svg" xmlns:xlink="http://www.w3.org/1999/xlink" width="665" height="340" viewBox="0 0 665 340">
  <defs>
    <clipPath id="clip-path">
      <rect width="90" height="90" fill="none"/>
    </clipPath>
  </defs>
  <g id="Group_1031" data-name="Group 1031" transform="translate(-255 -263)">
    <rect id="Rectangle_1212" data-name="Rectangle 1212" width="665" height="340" transform="translate(255 263)" fill="#234153"/>
    <g id="Repeat_Grid_3" data-name="Repeat Grid 3" transform="translate(830 513)" opacity="0.15" clip-path="url(#clip-path)">
      <g transform="translate(-265 -272)">
        <circle id="Ellipse_28" data-name="Ellipse 28" cx="1.5" cy="1.5" r="1.5" transform="translate(265 272)" fill="#fff"/>
      </g>
      <g transform="translate(-254 -272)">
        <circle id="Ellipse_28-2" data-name="Ellipse 28" cx="1.5" cy="1.5" r="1.5" transform="translate(265 272)" fill="#fff"/>
      </g>
      <g transform="translate(-243 -272)">
        <circle id="Ellipse_28-3" data-name="Ellipse 28" cx="1.5" cy="1.5" r="1.5" transform="translate(265 272)" fill="#fff"/>
      </g>
      <g transform="translate(-232 -272)">
        <circle id="Ellipse_28-4" data-name="Ellipse 28" cx="1.5" cy="1.5" r="1.5" transform="translate(265 272)" fill="#fff"/>
      </g>
      <g transform="translate(-221 -272)">
        <circle id="Ellipse_28-5" data-name="Ellipse 28" cx="1.5" cy="1.5" r="1.5" transform="translate(265 272)" fill="#fff"/>
      </g>
      <g transform="translate(-210 -272)">
        <circle id="Ellipse_28-6" data-name="Ellipse 28" cx="1.5" cy="1.5" r="1.5" transform="translate(265 272)" fill="#fff"/>
      </g>
      <g transform="translate(-199 -272)">
        <circle id="Ellipse_28-7" data-name="Ellipse 28" cx="1.5" cy="1.5" r="1.5" transform="translate(265 272)" fill="#fff"/>
      </g>
      <g transform="translate(-188 -272)">
        <circle id="Ellipse_28-8" data-name="Ellipse 28" cx="1.5" cy="1.5" r="1.5" transform="translate(265 272)" fill="#fff"/>
      </g>
      <g transform="translate(-177 -272)">
        <circle id="Ellipse_28-9" data-name="Ellipse 28" cx="1.5" cy="1.5" r="1.5" transform="translate(265 272)" fill="#fff"/>
      </g>
      <g transform="translate(-265 -261)">
        <circle id="Ellipse_28-10" data-name="Ellipse 28" cx="1.5" cy="1.5" r="1.5" transform="translate(265 272)" fill="#fff"/>
      </g>
      <g transform="translate(-254 -261)">
        <circle id="Ellipse_28-11" data-name="Ellipse 28" cx="1.5" cy="1.5" r="1.5" transform="translate(265 272)" fill="#fff"/>
      </g>
      <g transform="translate(-243 -261)">
        <circle id="Ellipse_28-12" data-name="Ellipse 28" cx="1.5" cy="1.5" r="1.5" transform="translate(265 272)" fill="#fff"/>
      </g>
      <g transform="translate(-232 -261)">
        <circle id="Ellipse_28-13" data-name="Ellipse 28" cx="1.5" cy="1.5" r="1.5" transform="translate(265 272)" fill="#fff"/>
      </g>
      <g transform="translate(-221 -261)">
        <circle id="Ellipse_28-14" data-name="Ellipse 28" cx="1.5" cy="1.5" r="1.5" transform="translate(265 272)" fill="#fff"/>
      </g>
      <g transform="translate(-210 -261)">
        <circle id="Ellipse_28-15" data-name="Ellipse 28" cx="1.5" cy="1.5" r="1.5" transform="translate(265 272)" fill="#fff"/>
      </g>
      <g transform="translate(-199 -261)">
        <circle id="Ellipse_28-16" data-name="Ellipse 28" cx="1.5" cy="1.5" r="1.5" transform="translate(265 272)" fill="#fff"/>
      </g>
      <g transform="translate(-188 -261)">
        <circle id="Ellipse_28-17" data-name="Ellipse 28" cx="1.5" cy="1.5" r="1.5" transform="translate(265 272)" fill="#fff"/>
      </g>
      <g transform="translate(-177 -261)">
        <circle id="Ellipse_28-18" data-name="Ellipse 28" cx="1.5" cy="1.5" r="1.5" transform="translate(265 272)" fill="#fff"/>
      </g>
      <g transform="translate(-265 -250)">
        <circle id="Ellipse_28-19" data-name="Ellipse 28" cx="1.5" cy="1.5" r="1.5" transform="translate(265 272)" fill="#fff"/>
      </g>
      <g transform="translate(-254 -250)">
        <circle id="Ellipse_28-20" data-name="Ellipse 28" cx="1.5" cy="1.5" r="1.5" transform="translate(265 272)" fill="#fff"/>
      </g>
      <g transform="translate(-243 -250)">
        <circle id="Ellipse_28-21" data-name="Ellipse 28" cx="1.5" cy="1.5" r="1.5" transform="translate(265 272)" fill="#fff"/>
      </g>
      <g transform="translate(-232 -250)">
        <circle id="Ellipse_28-22" data-name="Ellipse 28" cx="1.5" cy="1.5" r="1.5" transform="translate(265 272)" fill="#fff"/>
      </g>
      <g transform="translate(-221 -250)">
        <circle id="Ellipse_28-23" data-name="Ellipse 28" cx="1.5" cy="1.5" r="1.5" transform="translate(265 272)" fill="#fff"/>
      </g>
      <g transform="translate(-210 -250)">
        <circle id="Ellipse_28-24" data-name="Ellipse 28" cx="1.5" cy="1.5" r="1.5" transform="translate(265 272)" fill="#fff"/>
      </g>
      <g transform="translate(-199 -250)">
        <circle id="Ellipse_28-25" data-name="Ellipse 28" cx="1.5" cy="1.5" r="1.5" transform="translate(265 272)" fill="#fff"/>
      </g>
      <g transform="translate(-188 -250)">
        <circle id="Ellipse_28-26" data-name="Ellipse 28" cx="1.5" cy="1.5" r="1.5" transform="translate(265 272)" fill="#fff"/>
      </g>
      <g transform="translate(-177 -250)">
        <circle id="Ellipse_28-27" data-name="Ellipse 28" cx="1.5" cy="1.5" r="1.5" transform="translate(265 272)" fill="#fff"/>
      </g>
      <g transform="translate(-265 -239)">
        <circle id="Ellipse_28-28" data-name="Ellipse 28" cx="1.5" cy="1.5" r="1.5" transform="translate(265 272)" fill="#fff"/>
      </g>
      <g transform="translate(-254 -239)">
        <circle id="Ellipse_28-29" data-name="Ellipse 28" cx="1.5" cy="1.5" r="1.5" transform="translate(265 272)" fill="#fff"/>
      </g>
      <g transform="translate(-243 -239)">
        <circle id="Ellipse_28-30" data-name="Ellipse 28" cx="1.5" cy="1.5" r="1.5" transform="translate(265 272)" fill="#fff"/>
      </g>
      <g transform="translate(-232 -239)">
        <circle id="Ellipse_28-31" data-name="Ellipse 28" cx="1.5" cy="1.5" r="1.5" transform="translate(265 272)" fill="#fff"/>
      </g>
      <g transform="translate(-221 -239)">
        <circle id="Ellipse_28-32" data-name="Ellipse 28" cx="1.5" cy="1.5" r="1.5" transform="translate(265 272)" fill="#fff"/>
      </g>
      <g transform="translate(-210 -239)">
        <circle id="Ellipse_28-33" data-name="Ellipse 28" cx="1.5" cy="1.5" r="1.5" transform="translate(265 272)" fill="#fff"/>
      </g>
      <g transform="translate(-199 -239)">
        <circle id="Ellipse_28-34" data-name="Ellipse 28" cx="1.5" cy="1.5" r="1.5" transform="translate(265 272)" fill="#fff"/>
      </g>
      <g transform="translate(-188 -239)">
        <circle id="Ellipse_28-35" data-name="Ellipse 28" cx="1.5" cy="1.5" r="1.5" transform="translate(265 272)" fill="#fff"/>
      </g>
      <g transform="translate(-177 -239)">
        <circle id="Ellipse_28-36" data-name="Ellipse 28" cx="1.5" cy="1.5" r="1.5" transform="translate(265 272)" fill="#fff"/>
      </g>
      <g transform="translate(-265 -228)">
        <circle id="Ellipse_28-37" data-name="Ellipse 28" cx="1.5" cy="1.5" r="1.5" transform="translate(265 272)" fill="#fff"/>
      </g>
      <g transform="translate(-254 -228)">
        <circle id="Ellipse_28-38" data-name="Ellipse 28" cx="1.5" cy="1.5" r="1.5" transform="translate(265 272)" fill="#fff"/>
      </g>
      <g transform="translate(-243 -228)">
        <circle id="Ellipse_28-39" data-name="Ellipse 28" cx="1.5" cy="1.5" r="1.5" transform="translate(265 272)" fill="#fff"/>
      </g>
      <g transform="translate(-232 -228)">
        <circle id="Ellipse_28-40" data-name="Ellipse 28" cx="1.5" cy="1.5" r="1.5" transform="translate(265 272)" fill="#fff"/>
      </g>
      <g transform="translate(-221 -228)">
        <circle id="Ellipse_28-41" data-name="Ellipse 28" cx="1.5" cy="1.5" r="1.5" transform="translate(265 272)" fill="#fff"/>
      </g>
      <g transform="translate(-210 -228)">
        <circle id="Ellipse_28-42" data-name="Ellipse 28" cx="1.5" cy="1.5" r="1.5" transform="translate(265 272)" fill="#fff"/>
      </g>
      <g transform="translate(-199 -228)">
        <circle id="Ellipse_28-43" data-name="Ellipse 28" cx="1.5" cy="1.5" r="1.5" transform="translate(265 272)" fill="#fff"/>
      </g>
      <g transform="translate(-188 -228)">
        <circle id="Ellipse_28-44" data-name="Ellipse 28" cx="1.5" cy="1.5" r="1.5" transform="translate(265 272)" fill="#fff"/>
      </g>
      <g transform="translate(-177 -228)">
        <circle id="Ellipse_28-45" data-name="Ellipse 28" cx="1.5" cy="1.5" r="1.5" transform="translate(265 272)" fill="#fff"/>
      </g>
      <g transform="translate(-265 -217)">
        <circle id="Ellipse_28-46" data-name="Ellipse 28" cx="1.5" cy="1.5" r="1.5" transform="translate(265 272)" fill="#fff"/>
      </g>
      <g transform="translate(-254 -217)">
        <circle id="Ellipse_28-47" data-name="Ellipse 28" cx="1.5" cy="1.5" r="1.5" transform="translate(265 272)" fill="#fff"/>
      </g>
      <g transform="translate(-243 -217)">
        <circle id="Ellipse_28-48" data-name="Ellipse 28" cx="1.5" cy="1.5" r="1.5" transform="translate(265 272)" fill="#fff"/>
      </g>
      <g transform="translate(-232 -217)">
        <circle id="Ellipse_28-49" data-name="Ellipse 28" cx="1.5" cy="1.5" r="1.5" transform="translate(265 272)" fill="#fff"/>
      </g>
      <g transform="translate(-221 -217)">
        <circle id="Ellipse_28-50" data-name="Ellipse 28" cx="1.5" cy="1.5" r="1.5" transform="translate(265 272)" fill="#fff"/>
      </g>
      <g transform="translate(-210 -217)">
        <circle id="Ellipse_28-51" data-name="Ellipse 28" cx="1.5" cy="1.5" r="1.5" transform="translate(265 272)" fill="#fff"/>
      </g>
      <g transform="translate(-199 -217)">
        <circle id="Ellipse_28-52" data-name="Ellipse 28" cx="1.5" cy="1.5" r="1.5" transform="translate(265 272)" fill="#fff"/>
      </g>
      <g transform="translate(-188 -217)">
        <circle id="Ellipse_28-53" data-name="Ellipse 28" cx="1.5" cy="1.5" r="1.5" transform="translate(265 272)" fill="#fff"/>
      </g>
      <g transform="translate(-177 -217)">
        <circle id="Ellipse_28-54" data-name="Ellipse 28" cx="1.5" cy="1.5" r="1.5" transform="translate(265 272)" fill="#fff"/>
      </g>
      <g transform="translate(-265 -206)">
        <circle id="Ellipse_28-55" data-name="Ellipse 28" cx="1.5" cy="1.5" r="1.5" transform="translate(265 272)" fill="#fff"/>
      </g>
      <g transform="translate(-254 -206)">
        <circle id="Ellipse_28-56" data-name="Ellipse 28" cx="1.5" cy="1.5" r="1.5" transform="translate(265 272)" fill="#fff"/>
      </g>
      <g transform="translate(-243 -206)">
        <circle id="Ellipse_28-57" data-name="Ellipse 28" cx="1.5" cy="1.5" r="1.5" transform="translate(265 272)" fill="#fff"/>
      </g>
      <g transform="translate(-232 -206)">
        <circle id="Ellipse_28-58" data-name="Ellipse 28" cx="1.5" cy="1.5" r="1.5" transform="translate(265 272)" fill="#fff"/>
      </g>
      <g transform="translate(-221 -206)">
        <circle id="Ellipse_28-59" data-name="Ellipse 28" cx="1.5" cy="1.5" r="1.5" transform="translate(265 272)" fill="#fff"/>
      </g>
      <g transform="translate(-210 -206)">
        <circle id="Ellipse_28-60" data-name="Ellipse 28" cx="1.5" cy="1.5" r="1.5" transform="translate(265 272)" fill="#fff"/>
      </g>
      <g transform="translate(-199 -206)">
        <circle id="Ellipse_28-61" data-name="Ellipse 28" cx="1.5" cy="1.5" r="1.5" transform="translate(265 272)" fill="#fff"/>
      </g>
      <g transform="translate(-188 -206)">
        <circle id="Ellipse_28-62" data-name="Ellipse 28" cx="1.5" cy="1.5" r="1.5" transform="translate(265 272)" fill="#fff"/>
      </g>
      <g transform="translate(-177 -206)">
        <circle id="Ellipse_28-63" data-name="Ellipse 28" cx="1.5" cy="1.5" r="1.5" transform="translate(265 272)" fill="#fff"/>
      </g>
      <g transform="translate(-265 -195)">
        <circle id="Ellipse_28-64" data-name="Ellipse 28" cx="1.5" cy="1.5" r="1.5" transform="translate(265 272)" fill="#fff"/>
      </g>
      <g transform="translate(-254 -195)">
        <circle id="Ellipse_28-65" data-name="Ellipse 28" cx="1.5" cy="1.5" r="1.5" transform="translate(265 272)" fill="#fff"/>
      </g>
      <g transform="translate(-243 -195)">
        <circle id="Ellipse_28-66" data-name="Ellipse 28" cx="1.5" cy="1.5" r="1.5" transform="translate(265 272)" fill="#fff"/>
      </g>
      <g transform="translate(-232 -195)">
        <circle id="Ellipse_28-67" data-name="Ellipse 28" cx="1.5" cy="1.5" r="1.5" transform="translate(265 272)" fill="#fff"/>
      </g>
      <g transform="translate(-221 -195)">
        <circle id="Ellipse_28-68" data-name="Ellipse 28" cx="1.5" cy="1.5" r="1.5" transform="translate(265 272)" fill="#fff"/>
      </g>
      <g transform="translate(-210 -195)">
        <circle id="Ellipse_28-69" data-name="Ellipse 28" cx="1.5" cy="1.5" r="1.5" transform="translate(265 272)" fill="#fff"/>
      </g>
      <g transform="translate(-199 -195)">
        <circle id="Ellipse_28-70" data-name="Ellipse 28" cx="1.5" cy="1.5" r="1.5" transform="translate(265 272)" fill="#fff"/>
      </g>
      <g transform="translate(-188 -195)">
        <circle id="Ellipse_28-71" data-name="Ellipse 28" cx="1.5" cy="1.5" r="1.5" transform="translate(265 272)" fill="#fff"/>
      </g>
      <g transform="translate(-177 -195)">
        <circle id="Ellipse_28-72" data-name="Ellipse 28" cx="1.5" cy="1.5" r="1.5" transform="translate(265 272)" fill="#fff"/>
      </g>
      <g transform="translate(-265 -184)">
        <circle id="Ellipse_28-73" data-name="Ellipse 28" cx="1.5" cy="1.5" r="1.5" transform="translate(265 272)" fill="#fff"/>
      </g>
      <g transform="translate(-254 -184)">
        <circle id="Ellipse_28-74" data-name="Ellipse 28" cx="1.5" cy="1.5" r="1.5" transform="translate(265 272)" fill="#fff"/>
      </g>
      <g transform="translate(-243 -184)">
        <circle id="Ellipse_28-75" data-name="Ellipse 28" cx="1.5" cy="1.5" r="1.5" transform="translate(265 272)" fill="#fff"/>
      </g>
      <g transform="translate(-232 -184)">
        <circle id="Ellipse_28-76" data-name="Ellipse 28" cx="1.5" cy="1.5" r="1.5" transform="translate(265 272)" fill="#fff"/>
      </g>
      <g transform="translate(-221 -184)">
        <circle id="Ellipse_28-77" data-name="Ellipse 28" cx="1.5" cy="1.5" r="1.5" transform="translate(265 272)" fill="#fff"/>
      </g>
      <g transform="translate(-210 -184)">
        <circle id="Ellipse_28-78" data-name="Ellipse 28" cx="1.5" cy="1.5" r="1.5" transform="translate(265 272)" fill="#fff"/>
      </g>
      <g transform="translate(-199 -184)">
        <circle id="Ellipse_28-79" data-name="Ellipse 28" cx="1.5" cy="1.5" r="1.5" transform="translate(265 272)" fill="#fff"/>
      </g>
      <g transform="translate(-188 -184)">
        <circle id="Ellipse_28-80" data-name="Ellipse 28" cx="1.5" cy="1.5" r="1.5" transform="translate(265 272)" fill="#fff"/>
      </g>
      <g transform="translate(-177 -184)">
        <circle id="Ellipse_28-81" data-name="Ellipse 28" cx="1.5" cy="1.5" r="1.5" transform="translate(265 272)" fill="#fff"/>
      </g>
    </g>
    <g id="Repeat_Grid_4" data-name="Repeat Grid 4" transform="translate(256 263)" opacity="0.15" clip-path="url(#clip-path)">
      <g transform="translate(-265 -272)">
        <circle id="Ellipse_28-82" data-name="Ellipse 28" cx="1.5" cy="1.5" r="1.5" transform="translate(265 272)" fill="#fff"/>
      </g>
      <g transform="translate(-254 -272)">
        <circle id="Ellipse_28-83" data-name="Ellipse 28" cx="1.5" cy="1.5" r="1.5" transform="translate(265 272)" fill="#fff"/>
      </g>
      <g transform="translate(-243 -272)">
        <circle id="Ellipse_28-84" data-name="Ellipse 28" cx="1.5" cy="1.5" r="1.5" transform="translate(265 272)" fill="#fff"/>
      </g>
      <g transform="translate(-232 -272)">
        <circle id="Ellipse_28-85" data-name="Ellipse 28" cx="1.5" cy="1.5" r="1.5" transform="translate(265 272)" fill="#fff"/>
      </g>
      <g transform="translate(-221 -272)">
        <circle id="Ellipse_28-86" data-name="Ellipse 28" cx="1.5" cy="1.5" r="1.5" transform="translate(265 272)" fill="#fff"/>
      </g>
      <g transform="translate(-210 -272)">
        <circle id="Ellipse_28-87" data-name="Ellipse 28" cx="1.5" cy="1.5" r="1.5" transform="translate(265 272)" fill="#fff"/>
      </g>
      <g transform="translate(-199 -272)">
        <circle id="Ellipse_28-88" data-name="Ellipse 28" cx="1.5" cy="1.5" r="1.5" transform="translate(265 272)" fill="#fff"/>
      </g>
      <g transform="translate(-188 -272)">
        <circle id="Ellipse_28-89" data-name="Ellipse 28" cx="1.5" cy="1.5" r="1.5" transform="translate(265 272)" fill="#fff"/>
      </g>
      <g transform="translate(-177 -272)">
        <circle id="Ellipse_28-90" data-name="Ellipse 28" cx="1.5" cy="1.5" r="1.5" transform="translate(265 272)" fill="#fff"/>
      </g>
      <g transform="translate(-265 -261)">
        <circle id="Ellipse_28-91" data-name="Ellipse 28" cx="1.5" cy="1.5" r="1.5" transform="translate(265 272)" fill="#fff"/>
      </g>
      <g transform="translate(-254 -261)">
        <circle id="Ellipse_28-92" data-name="Ellipse 28" cx="1.5" cy="1.5" r="1.5" transform="translate(265 272)" fill="#fff"/>
      </g>
      <g transform="translate(-243 -261)">
        <circle id="Ellipse_28-93" data-name="Ellipse 28" cx="1.5" cy="1.5" r="1.5" transform="translate(265 272)" fill="#fff"/>
      </g>
      <g transform="translate(-232 -261)">
        <circle id="Ellipse_28-94" data-name="Ellipse 28" cx="1.5" cy="1.5" r="1.5" transform="translate(265 272)" fill="#fff"/>
      </g>
      <g transform="translate(-221 -261)">
        <circle id="Ellipse_28-95" data-name="Ellipse 28" cx="1.5" cy="1.5" r="1.5" transform="translate(265 272)" fill="#fff"/>
      </g>
      <g transform="translate(-210 -261)">
        <circle id="Ellipse_28-96" data-name="Ellipse 28" cx="1.5" cy="1.5" r="1.5" transform="translate(265 272)" fill="#fff"/>
      </g>
      <g transform="translate(-199 -261)">
        <circle id="Ellipse_28-97" data-name="Ellipse 28" cx="1.5" cy="1.5" r="1.5" transform="translate(265 272)" fill="#fff"/>
      </g>
      <g transform="translate(-188 -261)">
        <circle id="Ellipse_28-98" data-name="Ellipse 28" cx="1.5" cy="1.5" r="1.5" transform="translate(265 272)" fill="#fff"/>
      </g>
      <g transform="translate(-177 -261)">
        <circle id="Ellipse_28-99" data-name="Ellipse 28" cx="1.5" cy="1.5" r="1.5" transform="translate(265 272)" fill="#fff"/>
      </g>
      <g transform="translate(-265 -250)">
        <circle id="Ellipse_28-100" data-name="Ellipse 28" cx="1.5" cy="1.5" r="1.5" transform="translate(265 272)" fill="#fff"/>
      </g>
      <g transform="translate(-254 -250)">
        <circle id="Ellipse_28-101" data-name="Ellipse 28" cx="1.5" cy="1.5" r="1.5" transform="translate(265 272)" fill="#fff"/>
      </g>
      <g transform="translate(-243 -250)">
        <circle id="Ellipse_28-102" data-name="Ellipse 28" cx="1.5" cy="1.5" r="1.5" transform="translate(265 272)" fill="#fff"/>
      </g>
      <g transform="translate(-232 -250)">
        <circle id="Ellipse_28-103" data-name="Ellipse 28" cx="1.5" cy="1.5" r="1.5" transform="translate(265 272)" fill="#fff"/>
      </g>
      <g transform="translate(-221 -250)">
        <circle id="Ellipse_28-104" data-name="Ellipse 28" cx="1.5" cy="1.5" r="1.5" transform="translate(265 272)" fill="#fff"/>
      </g>
      <g transform="translate(-210 -250)">
        <circle id="Ellipse_28-105" data-name="Ellipse 28" cx="1.5" cy="1.5" r="1.5" transform="translate(265 272)" fill="#fff"/>
      </g>
      <g transform="translate(-199 -250)">
        <circle id="Ellipse_28-106" data-name="Ellipse 28" cx="1.5" cy="1.5" r="1.5" transform="translate(265 272)" fill="#fff"/>
      </g>
      <g transform="translate(-188 -250)">
        <circle id="Ellipse_28-107" data-name="Ellipse 28" cx="1.5" cy="1.5" r="1.5" transform="translate(265 272)" fill="#fff"/>
      </g>
      <g transform="translate(-177 -250)">
        <circle id="Ellipse_28-108" data-name="Ellipse 28" cx="1.5" cy="1.5" r="1.5" transform="translate(265 272)" fill="#fff"/>
      </g>
      <g transform="translate(-265 -239)">
        <circle id="Ellipse_28-109" data-name="Ellipse 28" cx="1.5" cy="1.5" r="1.5" transform="translate(265 272)" fill="#fff"/>
      </g>
      <g transform="translate(-254 -239)">
        <circle id="Ellipse_28-110" data-name="Ellipse 28" cx="1.5" cy="1.5" r="1.5" transform="translate(265 272)" fill="#fff"/>
      </g>
      <g transform="translate(-243 -239)">
        <circle id="Ellipse_28-111" data-name="Ellipse 28" cx="1.5" cy="1.5" r="1.5" transform="translate(265 272)" fill="#fff"/>
      </g>
      <g transform="translate(-232 -239)">
        <circle id="Ellipse_28-112" data-name="Ellipse 28" cx="1.5" cy="1.5" r="1.5" transform="translate(265 272)" fill="#fff"/>
      </g>
      <g transform="translate(-221 -239)">
        <circle id="Ellipse_28-113" data-name="Ellipse 28" cx="1.5" cy="1.5" r="1.5" transform="translate(265 272)" fill="#fff"/>
      </g>
      <g transform="translate(-210 -239)">
        <circle id="Ellipse_28-114" data-name="Ellipse 28" cx="1.5" cy="1.5" r="1.5" transform="translate(265 272)" fill="#fff"/>
      </g>
      <g transform="translate(-199 -239)">
        <circle id="Ellipse_28-115" data-name="Ellipse 28" cx="1.5" cy="1.5" r="1.5" transform="translate(265 272)" fill="#fff"/>
      </g>
      <g transform="translate(-188 -239)">
        <circle id="Ellipse_28-116" data-name="Ellipse 28" cx="1.5" cy="1.5" r="1.5" transform="translate(265 272)" fill="#fff"/>
      </g>
      <g transform="translate(-177 -239)">
        <circle id="Ellipse_28-117" data-name="Ellipse 28" cx="1.5" cy="1.5" r="1.5" transform="translate(265 272)" fill="#fff"/>
      </g>
      <g transform="translate(-265 -228)">
        <circle id="Ellipse_28-118" data-name="Ellipse 28" cx="1.5" cy="1.5" r="1.5" transform="translate(265 272)" fill="#fff"/>
      </g>
      <g transform="translate(-254 -228)">
        <circle id="Ellipse_28-119" data-name="Ellipse 28" cx="1.5" cy="1.5" r="1.5" transform="translate(265 272)" fill="#fff"/>
      </g>
      <g transform="translate(-243 -228)">
        <circle id="Ellipse_28-120" data-name="Ellipse 28" cx="1.5" cy="1.5" r="1.5" transform="translate(265 272)" fill="#fff"/>
      </g>
      <g transform="translate(-232 -228)">
        <circle id="Ellipse_28-121" data-name="Ellipse 28" cx="1.5" cy="1.5" r="1.5" transform="translate(265 272)" fill="#fff"/>
      </g>
      <g transform="translate(-221 -228)">
        <circle id="Ellipse_28-122" data-name="Ellipse 28" cx="1.5" cy="1.5" r="1.5" transform="translate(265 272)" fill="#fff"/>
      </g>
      <g transform="translate(-210 -228)">
        <circle id="Ellipse_28-123" data-name="Ellipse 28" cx="1.5" cy="1.5" r="1.5" transform="translate(265 272)" fill="#fff"/>
      </g>
      <g transform="translate(-199 -228)">
        <circle id="Ellipse_28-124" data-name="Ellipse 28" cx="1.5" cy="1.5" r="1.5" transform="translate(265 272)" fill="#fff"/>
      </g>
      <g transform="translate(-188 -228)">
        <circle id="Ellipse_28-125" data-name="Ellipse 28" cx="1.5" cy="1.5" r="1.5" transform="translate(265 272)" fill="#fff"/>
      </g>
      <g transform="translate(-177 -228)">
        <circle id="Ellipse_28-126" data-name="Ellipse 28" cx="1.5" cy="1.5" r="1.5" transform="translate(265 272)" fill="#fff"/>
      </g>
      <g transform="translate(-265 -217)">
        <circle id="Ellipse_28-127" data-name="Ellipse 28" cx="1.5" cy="1.5" r="1.5" transform="translate(265 272)" fill="#fff"/>
      </g>
      <g transform="translate(-254 -217)">
        <circle id="Ellipse_28-128" data-name="Ellipse 28" cx="1.5" cy="1.5" r="1.5" transform="translate(265 272)" fill="#fff"/>
      </g>
      <g transform="translate(-243 -217)">
        <circle id="Ellipse_28-129" data-name="Ellipse 28" cx="1.5" cy="1.5" r="1.5" transform="translate(265 272)" fill="#fff"/>
      </g>
      <g transform="translate(-232 -217)">
        <circle id="Ellipse_28-130" data-name="Ellipse 28" cx="1.5" cy="1.5" r="1.5" transform="translate(265 272)" fill="#fff"/>
      </g>
      <g transform="translate(-221 -217)">
        <circle id="Ellipse_28-131" data-name="Ellipse 28" cx="1.5" cy="1.5" r="1.5" transform="translate(265 272)" fill="#fff"/>
      </g>
      <g transform="translate(-210 -217)">
        <circle id="Ellipse_28-132" data-name="Ellipse 28" cx="1.5" cy="1.5" r="1.5" transform="translate(265 272)" fill="#fff"/>
      </g>
      <g transform="translate(-199 -217)">
        <circle id="Ellipse_28-133" data-name="Ellipse 28" cx="1.5" cy="1.5" r="1.5" transform="translate(265 272)" fill="#fff"/>
      </g>
      <g transform="translate(-188 -217)">
        <circle id="Ellipse_28-134" data-name="Ellipse 28" cx="1.5" cy="1.5" r="1.5" transform="translate(265 272)" fill="#fff"/>
      </g>
      <g transform="translate(-177 -217)">
        <circle id="Ellipse_28-135" data-name="Ellipse 28" cx="1.5" cy="1.5" r="1.5" transform="translate(265 272)" fill="#fff"/>
      </g>
      <g transform="translate(-265 -206)">
        <circle id="Ellipse_28-136" data-name="Ellipse 28" cx="1.5" cy="1.5" r="1.5" transform="translate(265 272)" fill="#fff"/>
      </g>
      <g transform="translate(-254 -206)">
        <circle id="Ellipse_28-137" data-name="Ellipse 28" cx="1.5" cy="1.5" r="1.5" transform="translate(265 272)" fill="#fff"/>
      </g>
      <g transform="translate(-243 -206)">
        <circle id="Ellipse_28-138" data-name="Ellipse 28" cx="1.5" cy="1.5" r="1.5" transform="translate(265 272)" fill="#fff"/>
      </g>
      <g transform="translate(-232 -206)">
        <circle id="Ellipse_28-139" data-name="Ellipse 28" cx="1.5" cy="1.5" r="1.5" transform="translate(265 272)" fill="#fff"/>
      </g>
      <g transform="translate(-221 -206)">
        <circle id="Ellipse_28-140" data-name="Ellipse 28" cx="1.5" cy="1.5" r="1.5" transform="translate(265 272)" fill="#fff"/>
      </g>
      <g transform="translate(-210 -206)">
        <circle id="Ellipse_28-141" data-name="Ellipse 28" cx="1.5" cy="1.5" r="1.5" transform="translate(265 272)" fill="#fff"/>
      </g>
      <g transform="translate(-199 -206)">
        <circle id="Ellipse_28-142" data-name="Ellipse 28" cx="1.5" cy="1.5" r="1.5" transform="translate(265 272)" fill="#fff"/>
      </g>
      <g transform="translate(-188 -206)">
        <circle id="Ellipse_28-143" data-name="Ellipse 28" cx="1.5" cy="1.5" r="1.5" transform="translate(265 272)" fill="#fff"/>
      </g>
      <g transform="translate(-177 -206)">
        <circle id="Ellipse_28-144" data-name="Ellipse 28" cx="1.5" cy="1.5" r="1.5" transform="translate(265 272)" fill="#fff"/>
      </g>
      <g transform="translate(-265 -195)">
        <circle id="Ellipse_28-145" data-name="Ellipse 28" cx="1.5" cy="1.5" r="1.5" transform="translate(265 272)" fill="#fff"/>
      </g>
      <g transform="translate(-254 -195)">
        <circle id="Ellipse_28-146" data-name="Ellipse 28" cx="1.5" cy="1.5" r="1.5" transform="translate(265 272)" fill="#fff"/>
      </g>
      <g transform="translate(-243 -195)">
        <circle id="Ellipse_28-147" data-name="Ellipse 28" cx="1.5" cy="1.5" r="1.5" transform="translate(265 272)" fill="#fff"/>
      </g>
      <g transform="translate(-232 -195)">
        <circle id="Ellipse_28-148" data-name="Ellipse 28" cx="1.5" cy="1.5" r="1.5" transform="translate(265 272)" fill="#fff"/>
      </g>
      <g transform="translate(-221 -195)">
        <circle id="Ellipse_28-149" data-name="Ellipse 28" cx="1.5" cy="1.5" r="1.5" transform="translate(265 272)" fill="#fff"/>
      </g>
      <g transform="translate(-210 -195)">
        <circle id="Ellipse_28-150" data-name="Ellipse 28" cx="1.5" cy="1.5" r="1.5" transform="translate(265 272)" fill="#fff"/>
      </g>
      <g transform="translate(-199 -195)">
        <circle id="Ellipse_28-151" data-name="Ellipse 28" cx="1.5" cy="1.5" r="1.5" transform="translate(265 272)" fill="#fff"/>
      </g>
      <g transform="translate(-188 -195)">
        <circle id="Ellipse_28-152" data-name="Ellipse 28" cx="1.5" cy="1.5" r="1.5" transform="translate(265 272)" fill="#fff"/>
      </g>
      <g transform="translate(-177 -195)">
        <circle id="Ellipse_28-153" data-name="Ellipse 28" cx="1.5" cy="1.5" r="1.5" transform="translate(265 272)" fill="#fff"/>
      </g>
      <g transform="translate(-265 -184)">
        <circle id="Ellipse_28-154" data-name="Ellipse 28" cx="1.5" cy="1.5" r="1.5" transform="translate(265 272)" fill="#fff"/>
      </g>
      <g transform="translate(-254 -184)">
        <circle id="Ellipse_28-155" data-name="Ellipse 28" cx="1.5" cy="1.5" r="1.5" transform="translate(265 272)" fill="#fff"/>
      </g>
      <g transform="translate(-243 -184)">
        <circle id="Ellipse_28-156" data-name="Ellipse 28" cx="1.5" cy="1.5" r="1.5" transform="translate(265 272)" fill="#fff"/>
      </g>
      <g transform="translate(-232 -184)">
        <circle id="Ellipse_28-157" data-name="Ellipse 28" cx="1.5" cy="1.5" r="1.5" transform="translate(265 272)" fill="#fff"/>
      </g>
      <g transform="translate(-221 -184)">
        <circle id="Ellipse_28-158" data-name="Ellipse 28" cx="1.5" cy="1.5" r="1.5" transform="translate(265 272)" fill="#fff"/>
      </g>
      <g transform="translate(-210 -184)">
        <circle id="Ellipse_28-159" data-name="Ellipse 28" cx="1.5" cy="1.5" r="1.5" transform="translate(265 272)" fill="#fff"/>
      </g>
      <g transform="translate(-199 -184)">
        <circle id="Ellipse_28-160" data-name="Ellipse 28" cx="1.5" cy="1.5" r="1.5" transform="translate(265 272)" fill="#fff"/>
      </g>
      <g transform="translate(-188 -184)">
        <circle id="Ellipse_28-161" data-name="Ellipse 28" cx="1.5" cy="1.5" r="1.5" transform="translate(265 272)" fill="#fff"/>
      </g>
      <g transform="translate(-177 -184)">
        <circle id="Ellipse_28-162" data-name="Ellipse 28" cx="1.5" cy="1.5" r="1.5" transform="translate(265 272)" fill="#fff"/>
      </g>
    </g>
  </g>
</svg>
